<svg xmlns="http://www.w3.org/2000/svg" id="Layer_1" x="0px" y="0px" version="1.1" viewBox="0 0 800.9 223.1" xml:space="preserve">
  <style type="text/css">
    .st0{fill:#006B68;} .st1{fill:#80BC00;}
  </style>
  <path id="XMLID_1259_" d="M19.9,14.6c0-2.4,2.1-4.4,4.6-4.4c2.4,0,4.3,2,4.3,4.4s-1.9,4.6-4.3,4.6	C22,19.1,19.9,16.9,19.9,14.6 M40.2,28.1h7.4V68c0,12.8-12.3,18.1-23.7,18.1C13.2,86.1,0.3,80.9,0.3,68V48.8L7.7,44v23.3	c0,8.6,8.4,11.5,16.2,11.5c8.3,0,16.3-3.3,16.3-11.4V28.1z" class="st0"/>
  <path id="XMLID_1262_" d="M78.1,35.4h-7.3c-3.9,0-5.2,1.7-5.2,5.6v12.1c0,5,2.3,5.6,6.8,5.6h5.7V35.4z M61.7,79.4h1.1	c8.7,0,15.3-2.6,15.3-11.1V66h-6.3c-8.1,0-13.7-3.9-13.7-12.9V41c0-7.9,4.7-12.9,12.9-12.9h14.5v38.8C85.5,79,80.2,85,66.6,86	L61.7,79.4z" class="st0"/>
  <path id="XMLID_1271_" d="M116,35.4h-7.3c-3.9,0-5.2,1.7-5.2,5.6v12.1c0,5,2.3,5.6,6.8,5.6h5.7V35.4z M102.7,19.1v-3	h3.3c-0.6-1-0.9-2.1-0.9-3.1c0-3.1,1.9-5.9,5.9-5.9h3.2v3h-2.1c-2.5,0-3.8,1-3.8,3c0,2.2,1.6,3.1,3.8,3.1h4.3v3h-13.7V19.1z M123.4,66v0.9c0,12.1-5.3,18.1-18.9,19.1l-4.9-6.6h1.1c8.7,0,15.3-2.6,15.3-11.1V66h-6.3C101.6,66,96,62.1,96,53.1V41	c0-7.9,4.7-12.9,12.9-12.9h14.5v30.6h4.5V66H123.4z" class="st0"/>
  <path id="XMLID_1281_" d="M127.4 58.7H147.4V66H127.4z" class="st0"/>
  <path id="XMLID_1283_" d="M146.8 58.7H159.10000000000002V66H146.8z" class="st0"/>
  <path id="XMLID_1285_" d="M158.5 58.7H170.8V66H158.5z" class="st0"/>
  <path id="XMLID_1287_" d="M170.3 58.7H182.60000000000002V66H170.3z" class="st0"/>
  <path id="XMLID_1289_" d="M182 58.7H194.3V66H182z" class="st0"/>
  <path id="XMLID_1292_" d="M193.8 58.7H206.10000000000002V66H193.8z" class="st0"/>
  <path id="XMLID_1293_" d="M205.5 58.7H217.8V66H205.5z" class="st0"/>
  <path id="XMLID_1294_" d="M262.1,9.1c-2.5,0-4.4-2.1-4.4-4.5c0-2.5,1.9-4.6,4.4-4.6s4.4,2.1,4.4,4.6	C266.5,7,264.5,9.1,262.1,9.1 M268,19.1c-2.5,0-4.5-2.1-4.5-4.4c0-2.5,1.9-4.6,4.5-4.6c2.5,0,4.4,2,4.4,4.6	C272.5,17.1,270.4,19.1,268,19.1 M256.7,19.1c-2.5,0-4.6-2.1-4.6-4.4c0-2.5,2.1-4.6,4.6-4.6c2.4,0,4.4,2,4.4,4.6	C261.2,17.1,259.1,19.1,256.7,19.1 M217.3,66v-7.3h21.4V28.1h7.2v30.6h12.8V28.1h7.3v30.6h12.7V28.1h7.3v30.6h3.1V66H217.3z" class="st0"/>
  <path id="XMLID_1299_" d="M288.6,66v-7.3h2.9c4,0,5.8-1.3,5.8-5.6V12.7h7.3v41c0,7.2-3.9,12.3-12.9,12.3H288.6z" class="st0"/>
  <path id="XMLID_1300_" d="M315.2 70.1L315.2 12.7 322.6 12.7 322.6 66z" class="st0"/>
  <path id="XMLID_1301_" d="M362.4,14.6c0-2.4,2.1-4.4,4.4-4.4c2.4,0,4.4,2.1,4.4,4.4c0,2.4-2.1,4.6-4.4,4.6	C364.4,19.1,362.4,17,362.4,14.6 M367.4,35.4h-7.3c-3.1,0-5.3,1.1-5.3,5.6v12.3c0,4.3,2.9,5.5,6.3,5.5c3.5,0,6.3-1.1,6.3-5.5V35.4z M351.1,14.6c0-2.4,2.1-4.4,4.6-4.4c2.4,0,4.5,2.1,4.5,4.4c0,2.4-2.1,4.6-4.5,4.6C353.1,19.1,351.1,17,351.1,14.6 M374.8,53.1	c0,9.8-6.8,12.9-13.7,12.9c-7.6,0-13.7-3.9-13.7-13.1V41c0-8.2,5-12.9,12.7-12.9h14.7V53.1z" class="st0"/>
  <path id="XMLID_1306_" d="M382,79.5c7.5-2.4,9.1-5.4,9.1-12.4V28.2h7.3v41.1c0,7.8-4,13.6-11.3,16.7L382,79.5z" class="st0"/>
  <path id="XMLID_1307_" d="M409 70.1L409 12.7 416.5 12.7 416.5 66z" class="st0"/>
  <path id="XMLID_1311_" d="M432,14.6c0-2.4,1.9-4.5,4.4-4.5c2.4,0,4.3,2.1,4.3,4.5s-1.9,4.6-4.3,4.6	C433.9,19.1,432,16.9,432,14.6 M423.6,79.5c7.5-2.4,9.1-5.4,9.1-12.4V28.2h7.3v41.1c0,7.8-4,13.6-11.3,16.7L423.6,79.5z" class="st0"/>
  <path id="XMLID_1317_" d="M470.7,35.4h-7.3c-3.9,0-5.2,1.7-5.2,5.6v12.1c0,5,2.3,5.6,6.8,5.6h5.7V35.4z M454.2,79.4h1.1	c8.7,0,15.3-2.6,15.3-11.1V66h-6.3c-8.1,0-13.7-3.9-13.7-12.9V41c0-7.9,4.7-12.9,12.9-12.9H478v38.8C478,79,472.8,85,459.1,86	L454.2,79.4z" class="st0"/>
  <path id="XMLID_1321_" d="M14.9,102.4c0-2.4,2.1-4.4,4.5-4.4s4.5,2,4.5,4.4s-2.1,4.6-4.5,4.6S14.9,104.8,14.9,102.4 M19.9,123.3h-7.3c-3.1,0-5.2,1.1-5.2,5.4v12.4c0,3.3,0.9,5.5,5.7,5.5h6.8V123.3z M3.6,102.4c0-2.4,2.1-4.4,4.6-4.4	c2.4,0,4.4,2,4.4,4.4s-2.1,4.6-4.4,4.6C5.6,106.9,3.6,104.8,3.6,102.4 M19.9,153.8V149l-3.5,4.8h-2.7C4.6,153.8,0,149,0,140.9v-12.1	c0-8.7,5.7-12.9,12.9-12.9h14.5v30.6h4.5v7.3H19.9z" class="st0"/>
  <path id="XMLID_1326_" d="M31.3 146.5H43.6V153.8H31.3z" class="st0"/>
  <path id="XMLID_1327_" d="M56.5,169.4c0-2.4,1.9-4.4,4.5-4.4c2.4,0,4.3,2,4.3,4.4c0,2.5-1.9,4.4-4.3,4.4	C58.5,173.8,56.5,171.9,56.5,169.4 M49.7,173.8c-2.5,0-4.5-1.9-4.5-4.4c0-2.4,1.9-4.4,4.5-4.4c2.4,0,4.5,2,4.5,4.4	C54.1,171.9,52.1,173.8,49.7,173.8 M43.1,153.8v-7.3H52c3.7,0,5.4-1.7,5.4-5v-25.6h7.3v25.2c0,9-6.1,12.7-13.2,12.7H43.1z" class="st0"/>
  <path id="XMLID_1331_" d="M95.1,123.3h-7.3c-3.9,0-5.2,1.7-5.2,5.6V141c0,5,2.3,5.6,6.8,5.6h5.7V123.3z M78.7,167.2h1.1	c8.7,0,15.3-2.6,15.3-11.1v-2.3h-6.3c-8.1,0-13.7-3.9-13.7-12.9v-12.1c0-7.9,4.7-12.9,12.9-12.9h14.5v38.8	c0,12.1-5.3,18.1-18.9,19.1L78.7,167.2z" class="st0"/>
  <path id="XMLID_1334_" d="M109.7,167.3c7.5-2.4,9.1-5.4,9.1-12.4V116h7.3v30.6h4.6v7.3h-4.6v3.3c0,7.8-4,13.6-11.3,16.7	L109.7,167.3z" class="st0"/>
  <path id="XMLID_1335_" d="M130.1 146.5H142.4V153.8H130.1z" class="st0"/>
  <path id="XMLID_1336_" d="M165.1,102.4c0-2.4,2.2-4.4,4.6-4.4s4.5,2,4.5,4.4s-2.1,4.6-4.5,4.6	C167.3,106.9,165.1,104.8,165.1,102.4 M170.3,123.3H163c-3.1,0-5.3,1.1-5.3,5.6v17.7h12.6L170.3,123.3L170.3,123.3z M153.9,102.4	c0-2.4,2.1-4.4,4.6-4.4c2.4,0,4.3,2,4.3,4.4s-1.9,4.6-4.3,4.6C156,106.9,153.9,104.8,153.9,102.4 M141.9,153.8v-7.3h8.4v-17.7	c0-8.2,5-12.9,12.7-12.9h14.7v30.6h4.5v7.3H141.9z" class="st0"/>
  <path id="XMLID_1341_" d="M181.7,153.8v-7.3h2.8c4,0,5.8-1.3,5.8-5.6v-40.4h7.3v41c0,7.2-3.9,12.3-12.9,12.3	L181.7,153.8L181.7,153.8z" class="st0"/>
  <path id="XMLID_1342_" d="M208.3 158L208.3 100.6 215.7 100.6 215.7 153.8z" class="st0"/>
  <path id="XMLID_1343_" d="M246.1,123.3h-7.3c-3.9,0-5.3,1.7-5.3,5.6V141c0,5,2.3,5.6,6.8,5.6h5.7L246.1,123.3	L246.1,123.3z M229.7,167.2h1.1c8.7,0,15.3-2.6,15.3-11.1v-2.3h-6.3c-8.1,0-13.7-3.9-13.7-12.9v-12.1c0-7.9,4.7-12.9,12.9-12.9h14.5	v38.8c0,12.1-5.2,18.1-18.9,19.1L229.7,167.2z" class="st0"/>
  <path id="XMLID_1346_" d="M293.4,102.4c0-2.4,2.1-4.4,4.5-4.4c2.4,0,4.5,2,4.5,4.4s-2.1,4.6-4.5,4.6	C295.4,106.9,293.4,104.8,293.4,102.4 M298.4,123.3h-7.3c-3.1,0-5.2,1.1-5.2,5.4v12.4c0,3.3,0.9,5.5,5.7,5.5h6.8V123.3z M282.1,102.4c0-2.4,2.1-4.4,4.6-4.4c2.4,0,4.5,2,4.5,4.4s-2.1,4.6-4.5,4.6C284.1,106.9,282.1,104.8,282.1,102.4 M298.4,153.8V149	l-3.5,4.8h-2.7c-9.1,0-13.7-4.8-13.7-12.9v-12.1c0-8.7,5.7-12.9,12.9-12.9h14.5v30.6h4.4v7.3H298.4z" class="st0"/>
  <path id="XMLID_1351_" d="M309.8 146.5H321.40000000000003V153.8H309.8z" class="st0"/>
  <path id="XMLID_1352_" d="M334.3,169.4c0-2.4,1.9-4.4,4.5-4.4c2.4,0,4.3,2,4.3,4.4c0,2.5-1.9,4.4-4.3,4.4	C336.3,173.8,334.3,171.9,334.3,169.4 M327.5,173.8c-2.5,0-4.5-1.9-4.5-4.4c0-2.4,1.9-4.4,4.5-4.4c2.4,0,4.4,2,4.4,4.4	C331.9,171.9,329.9,173.8,327.5,173.8 M320.9,153.8v-7.3h8.9c3.7,0,5.4-1.7,5.4-5v-25.6h7.3v25.2c0,9-6,12.7-13.2,12.7H320.9z" class="st0"/>
  <path id="XMLID_1356_" d="M352.9,153.8v-7.3h22v-12.3c0-8.1-4.7-11-10.7-11h-4.9v-7.3h5.4c8.9,0,17.5,6,17.5,17.5v13.1	h4.6v7.3H352.9z" class="st0"/>
  <path id="XMLID_1357_" d="M386.1 146.5H398.40000000000003V153.8H386.1z" class="st0"/>
  <path id="XMLID_1358_" d="M397.9 153.8L397.9 146.5 406.5 146.5 406.5 100.5 413.7 100.5 413.7 146.5 418.3 146.5 418.3 153.8z" class="st0"/>
  <path id="XMLID_1359_" d="M431.3,169.4c0-2.4,1.9-4.4,4.5-4.4c2.4,0,4.3,2,4.3,4.4c0,2.5-1.9,4.4-4.3,4.4	C433.2,173.8,431.3,171.9,431.3,169.4 M417.8,153.8v-7.3h14.3v-30.6h7.3v30.6h4.6v7.3H417.8z" class="st0"/>
  <path id="XMLID_1362_" d="M443.4,153.8v-7.3h2.9c4,0,5.8-1.3,5.8-5.6v-40.4h7.3v41c0,7.2-3.9,12.3-12.9,12.3	L443.4,153.8L443.4,153.8z" class="st0"/>
  <path id="XMLID_1363_" d="M470 158L470 100.6 477.4 100.6 477.4 153.8z" class="st0"/>
  <path id="XMLID_1364_" d="M18.7 216.7L18.7 198.7 13 216.7 9.2 216.7 3.5 198.7 3.5 216.7 0.6 216.7 0.6 195 5.3 195 11.1 214 17 195 21.6 195 21.6 216.7z" class="st1"/>
  <path id="XMLID_1365_" d="M31.1,216.5c-0.6,0.3-1.4,0.5-2.6,0.5c-0.5,0-2.5-0.1-2.5-2.3v-13.4h3.1V214	c0,0.5,0.2,0.8,0.7,0.8c0.2,0,0.5,0,0.8-0.1L31.1,216.5z M27.6,198.2c-1,0-2-0.9-2-1.9c0-1.1,1-2,2-2c1.1,0,2,0.9,2,2	S28.7,198.2,27.6,198.2" class="st1"/>
  <path id="XMLID_1368_" d="M48.6,216.5c-0.6,0.3-1.4,0.5-2.5,0.5c-0.5,0-2.6-0.1-2.6-2.3v-8.4c0-2-0.5-2.5-2-2.5	c-2.1,0-4.3,1.6-5,2.2v10.7h-3.1v-15.4h3.1v2.1c1.2-1.1,3.5-2.3,5.5-2.3c2.9,0,4.6,0.7,4.6,5v7.9c0,0.5,0.2,0.8,0.7,0.8	c0.2,0,0.5,0,0.8-0.1L48.6,216.5z" class="st1"/>
  <path id="XMLID_1369_" d="M56,216.5c-0.6,0.3-1.4,0.5-2.6,0.5c-0.5,0-2.5-0.1-2.5-2.3v-13.4H54V214	c0,0.5,0.2,0.8,0.7,0.8c0.2,0,0.5,0,0.8-0.1L56,216.5z M52.5,198.2c-1,0-2-0.9-2-1.9c0-1.1,1-2,2-2c1.1,0,2,0.9,2,2	S53.7,198.2,52.5,198.2" class="st1"/>
  <path id="XMLID_1372_" d="M58.5,213.6c0.8,0.4,2.7,0.9,4.1,0.9c2.2,0,3.7-0.5,3.7-2.2c0-2.8-8-2.1-8-7	c0-3.4,3.2-4.3,6.1-4.3c1.9,0,3.3,0.3,4.4,0.8l-0.5,2.5c-1.2-0.6-2.6-0.8-3.8-0.8c-2.1,0-3.1,0.5-3.1,1.6c0,2.5,8,1.8,8,7.2	c0,2.9-2.8,4.7-6.2,4.7c-2.4,0-4-0.3-5.3-0.7L58.5,213.6z" class="st1"/>
  <path id="XMLID_1373_" d="M80.2,216.4c-1.1,0.4-1.7,0.6-3.5,0.6c-2.1,0-3.2-0.9-3.2-4v-9.3H71l0.5-2.5h2v-4.1l3.1-1v5.2	h3.2v2.5h-3.2v8.9c0,1.6,0.4,1.8,1.6,1.8c0.4,0,1.2-0.2,1.5-0.4L80.2,216.4z" class="st1"/>
  <path id="XMLID_1374_" d="M82.9,216.7v-15.4H86v2c0.6-1.4,1.8-2.3,2.9-2.3c1.2,0,2.1,0.4,2.9,0.8l-0.6,2.6	c-0.8-0.3-1.6-0.5-2.6-0.5c-1.4,0-2.3,1.4-2.7,2.1v10.8L82.9,216.7L82.9,216.7z" class="st1"/>
  <path id="XMLID_1375_" d="M92.8,201.3h3.3l4,11.1l3.4-11.1h3.4l-5.5,16c-1.6,4.6-3.1,5.8-5.9,5.8	c-1.4,0-2.8-0.4-3.2-0.6l0.6-2.6c0.7,0.3,1.7,0.5,2.6,0.5c0.8,0,2,0,3.3-4.1L92.8,201.3z" class="st1"/>
  <path id="XMLID_1376_" d="M126.4,209.1c0-4.8-1.8-5.7-4.2-5.7c-2.5,0-4.2,0.9-4.2,5.7s1.7,5.5,4.2,5.5	C124.6,214.6,126.4,213.8,126.4,209.1 M114.6,209.1c0-6.4,3.5-8.1,7.5-8.1s7.5,1.7,7.5,8.1c0,6.4-3.5,7.9-7.5,7.9	C118.2,217,114.6,215.5,114.6,209.1" class="st1"/>
  <path id="XMLID_1379_" d="M134.1,216.7v-13h-2.5l0.5-2.5h2V199c0-2.7,0.5-5,4.3-5c1.2,0,2.2,0.1,3.2,0.5l-0.6,2.6	c-0.7-0.2-1.4-0.4-2.1-0.4c-1.4,0-1.8,0.3-1.8,1.9v2.6h3.4v2.5h-3.4v13L134.1,216.7L134.1,216.7z" class="st1"/>
  <path id="XMLID_1380_" d="M167.7 216.7L167.7 198.7 162 216.7 158.2 216.7 152.5 198.7 152.5 216.7 149.5 216.7 149.5 195 154.3 195 160.1 214 166 195 170.6 195 170.6 216.7z" class="st1"/>
  <path id="XMLID_1381_" d="M189.8,216.5c-0.6,0.3-1.5,0.5-2.5,0.5c-2.5,0-2.6-2-2.6-2.3c-1,0.9-3.1,2.3-5.2,2.3	c-2.9,0-4.7-0.7-4.7-5v-10.7h3.1v10.3c0,2.1,0.6,2.5,2,2.5c2,0,4.2-1.4,4.8-2.2v-10.6h3.1V214c0,0.5,0.3,0.8,0.8,0.8	c0.2,0,0.5,0,0.8-0.1L189.8,216.5z" class="st1"/>
  <path id="XMLID_1382_" d="M207.3,216.5c-0.6,0.3-1.4,0.5-2.5,0.5c-0.5,0-2.6-0.1-2.6-2.3v-8.4c0-2-0.5-2.5-2-2.5	c-2.1,0-4.3,1.6-5,2.2v10.7h-3.1v-15.4h3.1v2.1c1.2-1.1,3.5-2.3,5.5-2.3c2.9,0,4.6,0.7,4.6,5v7.9c0,0.5,0.2,0.8,0.7,0.8	c0.2,0,0.5,0,0.8-0.1L207.3,216.5z" class="st1"/>
  <path id="XMLID_1383_" d="M214.7,216.5c-0.6,0.3-1.4,0.5-2.6,0.5c-0.5,0-2.5-0.1-2.5-2.3v-13.4h3.1V214	c0,0.5,0.2,0.8,0.7,0.8c0.2,0,0.5,0,0.8-0.1L214.7,216.5z M211.2,198.2c-1,0-2-0.9-2-1.9c0-1.1,1-2,2-2c1.1,0,2,0.9,2,2	C213.1,197.4,212.3,198.2,211.2,198.2" class="st1"/>
  <path id="XMLID_1386_" d="M228,216.3c-1.1,0.4-2.8,0.7-4.6,0.7c-2.9,0-6.9-2-6.9-8.1c0-3.4,2.1-7.9,7.4-7.9	c2.1,0,3.7,0.3,4.8,0.8l-0.5,2.6c-1-0.4-2.7-0.7-3.9-0.7c-4.1,0-4.5,3.3-4.5,5.4c0,4.1,2.1,5.3,5,5.3c1,0,2.9-0.3,3.8-0.7L228,216.3	z" class="st1"/>
  <path id="XMLID_1387_" d="M236.8,216.5c-0.6,0.3-1.4,0.5-2.6,0.5c-0.5,0-2.5-0.1-2.5-2.3v-13.4h3.1V214	c0,0.5,0.2,0.8,0.7,0.8c0.2,0,0.5,0,0.8-0.1L236.8,216.5z M233.3,198.2c-1,0-2-0.9-2-1.9c0-1.1,1-2,2-2c1.1,0,2,0.9,2,2	C235.2,197.4,234.4,198.2,233.3,198.2" class="st1"/>
  <path id="XMLID_1390_" d="M242.2,213c0.7,0.7,2.4,1.4,3.6,1.4c2.8,0,4.3-1.1,4.3-5.3c0-3.7-0.9-5.4-3.8-5.4	c-2.7,0-4.1,2-4.1,4V213z M239.1,222.9v-21.6h3.1v2c0.8-1,2.3-2.3,5.1-2.3c2.9,0,6.1,1.8,6.1,8c0,4.5-2,8-6.9,8	c-2.1,0-3.7-0.7-4.3-1.3v7.2L239.1,222.9L239.1,222.9z" class="st1"/>
  <path id="XMLID_1393_" d="M265.7,209.5c-0.5,0-1.6-0.1-2.2-0.1c-2.5,0-3.9,0.7-3.9,2.8c0,2.2,2,2.3,2.8,2.3	c1.9,0,3.4-1.4,3.4-3.4L265.7,209.5L265.7,209.5z M270.7,216.5c-0.8,0.4-1.4,0.5-2.5,0.5c-2.3,0-2.6-1.6-2.6-2.2	c-0.5,0.9-1.5,2.2-4.5,2.2c-3.4,0-4.9-1.7-4.9-4.5c0-4.1,3.3-5.3,6.9-5.3c0.8,0,2.1,0.1,2.5,0.2V206c0-2.2-1.9-2.3-3.7-2.3	c-1.9,0-3.5,0.4-4.6,0.8l0.5-2.6c1.1-0.4,3-0.8,4.9-0.8c4,0,5.9,1.2,5.9,5.7v7.2c0,0.6,0.2,0.8,0.8,0.8c0.3,0,0.5,0,0.8-0.1	L270.7,216.5z" class="st1"/>
  <path id="XMLID_1396_" d="M278.1,216.5c-0.6,0.3-1.4,0.5-2.5,0.5c-0.5,0-2.6-0.1-2.6-2.3V195h3.1v19	c0,0.5,0.2,0.8,0.7,0.8c0.2,0,0.5,0,0.8-0.1L278.1,216.5z" class="st1"/>
  <path id="XMLID_1397_" d="M291.5,206.6c-0.8,0.3-2.4,1.1-2.4,4.1c0,2.9,2.1,3.6,4,3.6c1.6,0,3.3-0.9,3.9-1.6	C295.2,211.1,293.1,208.5,291.5,206.6 M304.7,216.8c-0.6,0.2-1.5,0.2-2.1,0.2c-1.4,0-2.7-1-3.8-2.3c-1.2,1.3-3.3,2.3-5.9,2.3	c-3.9,0-7-1.7-7-5.9c0-4.3,2.4-5.9,4.2-6.6c-0.8-1.1-1.9-2.9-1.9-5c0-2.5,1.7-4.9,5.3-4.9c2.3,0,4,0.5,5.1,1l-0.5,2.8	c-1.3-0.6-2.7-0.9-4.1-0.9c-1.6,0-2.6,0.5-2.6,2.1c0,2.5,1.7,4.6,7.3,10.7c0.9-1.7,1-3.5,1-6.3h5.7l-0.5,2.7h-2.6	c0,1.4-0.4,4.1-1.6,5.9c1.2,1.4,1.7,1.9,2.9,1.9c0.5,0,1.1-0.1,1.5-0.2L304.7,216.8z" class="st1"/>
  <path id="XMLID_1400_" d="M322.5,205.9c1.6,0,3.4-0.8,3.4-4c0-2.5-1.4-4.1-3.4-4.1h-4.3v8.1H322.5z M326.3,216.7l-4.2-8	h-4v8h-3.3v-21.8h6.9c5.3,0,7.5,2.8,7.5,6.9c0,3.1-1.4,5.3-3.9,6.3l4.6,8.6H326.3z" class="st1"/>
  <path id="XMLID_1403_" d="M348.1,216.5c-0.6,0.3-1.5,0.5-2.5,0.5c-2.5,0-2.6-2-2.6-2.3c-1,0.9-3.1,2.3-5.2,2.3	c-2.9,0-4.7-0.7-4.7-5v-10.7h3.1v10.3c0,2.1,0.6,2.5,2,2.5c2,0,4.2-1.4,4.8-2.2v-10.6h3.1V214c0,0.5,0.3,0.8,0.8,0.8	c0.2,0,0.5,0,0.8-0.1L348.1,216.5z" class="st1"/>
  <path id="XMLID_1404_" d="M350.3,216.7v-15.4h3.1v2c0.6-1.4,1.8-2.3,2.9-2.3c1.2,0,2.1,0.4,2.9,0.8l-0.6,2.6	c-0.8-0.3-1.6-0.5-2.6-0.5c-1.3,0-2.3,1.4-2.7,2.1v10.8L350.3,216.7L350.3,216.7z" class="st1"/>
  <path id="XMLID_1405_" d="M370.5,209.5c-0.5,0-1.6-0.1-2.2-0.1c-2.5,0-3.9,0.7-3.9,2.8c0,2.2,2,2.3,2.8,2.3	c1.9,0,3.4-1.4,3.4-3.4L370.5,209.5L370.5,209.5z M375.5,216.5c-0.8,0.4-1.4,0.5-2.5,0.5c-2.3,0-2.6-1.6-2.6-2.2	c-0.5,0.9-1.5,2.2-4.5,2.2c-3.4,0-4.9-1.7-4.9-4.5c0-4.1,3.3-5.3,6.9-5.3c0.8,0,2.1,0.1,2.5,0.2V206c0-2.2-1.9-2.3-3.7-2.3	c-1.9,0-3.5,0.4-4.6,0.8l0.5-2.6c1.1-0.4,3-0.8,4.9-0.8c4,0,5.9,1.2,5.9,5.7v7.2c0,0.6,0.2,0.8,0.8,0.8c0.3,0,0.5,0,0.8-0.1	L375.5,216.5z" class="st1"/>
  <path id="XMLID_1408_" d="M382.9,216.5c-0.6,0.3-1.4,0.5-2.5,0.5c-0.5,0-2.6-0.1-2.6-2.3V195h3.1v19	c0,0.5,0.2,0.8,0.7,0.8c0.2,0,0.5,0,0.8-0.1L382.9,216.5z" class="st1"/>
  <path id="XMLID_1409_" d="M398.8,199.2l-3.2,9.8h6.2L398.8,199.2z M404.4,216.7l-1.6-5h-8l-1.6,5h-3.5l7.4-21.8h3.6	l7.4,21.8H404.4z" class="st1"/>
  <path id="XMLID_1412_" d="M422.2,216.7v-13h-2.5l0.5-2.5h2V199c0-2.7,0.5-5,4.3-5c1.2,0,2.2,0.1,3.2,0.5l-0.6,2.6	c-0.7-0.2-1.5-0.4-2.1-0.4c-1.4,0-1.8,0.3-1.8,1.9v2.6h3.4v2.5h-3.4v13L422.2,216.7L422.2,216.7z M411.5,216.7v-13H409l0.5-2.5h2	V199c0-2.7,0.5-5,4.3-5c1.2,0,2.2,0.1,3.2,0.5l-0.6,2.6c-0.7-0.2-1.5-0.4-2.1-0.4c-1.4,0-1.8,0.3-1.8,1.9v2.6h3.4v2.5h-3.4v13	L411.5,216.7L411.5,216.7z" class="st1"/>
  <path id="XMLID_1415_" d="M440.2,209.5c-0.5,0-1.6-0.1-2.2-0.1c-2.5,0-3.9,0.7-3.9,2.8c0,2.2,2,2.3,2.8,2.3	c1.9,0,3.4-1.4,3.4-3.4L440.2,209.5L440.2,209.5z M445.2,216.5c-0.8,0.4-1.4,0.5-2.5,0.5c-2.3,0-2.6-1.6-2.6-2.2	c-0.5,0.9-1.5,2.2-4.5,2.2c-3.4,0-4.9-1.7-4.9-4.5c0-4.1,3.3-5.3,6.9-5.3c0.8,0,2.1,0.1,2.5,0.2V206c0-2.2-1.9-2.3-3.7-2.3	c-1.9,0-3.5,0.4-4.6,0.8l0.5-2.6c1.1-0.4,3-0.8,4.9-0.8c4,0,5.9,1.2,5.9,5.7v7.2c0,0.6,0.2,0.8,0.8,0.8c0.3,0,0.5,0,0.8-0.1	L445.2,216.5z" class="st1"/>
  <path id="XMLID_1418_" d="M452.6,216.5c-0.6,0.3-1.4,0.5-2.6,0.5c-0.5,0-2.5-0.1-2.5-2.3v-13.4h3.1V214	c0,0.5,0.2,0.8,0.7,0.8c0.2,0,0.5,0,0.8-0.1L452.6,216.5z M449.1,198.2c-1,0-2-0.9-2-1.9c0-1.1,1-2,2-2c1.1,0,2,0.9,2,2	S450.3,198.2,449.1,198.2" class="st1"/>
  <path id="XMLID_1421_" d="M455,216.7v-15.4h3.1v2c0.6-1.4,1.8-2.3,2.9-2.3c1.2,0,2.1,0.4,2.9,0.8l-0.6,2.6	c-0.8-0.3-1.6-0.5-2.6-0.5c-1.4,0-2.3,1.4-2.7,2.1v10.8L455,216.7L455,216.7z" class="st1"/>
  <path id="XMLID_1422_" d="M466.6,213.6c0.8,0.4,2.7,0.9,4.1,0.9c2.2,0,3.7-0.5,3.7-2.2c0-2.8-8-2.1-8-7	c0-3.4,3.2-4.3,6.1-4.3c1.9,0,3.3,0.3,4.4,0.8l-0.5,2.5c-1.2-0.6-2.6-0.8-3.8-0.8c-2.1,0-3.1,0.5-3.1,1.6c0,2.5,8,1.8,8,7.2	c0,2.9-2.7,4.7-6.2,4.7c-2.4,0-4-0.3-5.3-0.7L466.6,213.6z" class="st1"/>
  <path id="XMLID_1423_" d="M679.7,223.1c-66.9,0-121.3-54.4-121.3-121.3l0.9-16.8h19V59.6h2.1v-4.1h9.1l2.6,4.4h4.7v32.4	h3.8v4.5h1.4v-26h15.3v6.7h5.1V90h8.5V77.9h11.4l4.1,5.2v13.8h23.4v3.5h-26.9V84.3l-2.3-2.9h-6.2v16.3h-4.7v-4.2h-10.8V81h-5.1v-6.7	h-8.3v26.1h-8.4v-4.6h-3.8V63.4h-3.2l-2.6-4.4h-3.6v4.1h-2.1v25.4h-19.1l-0.7,13.3c0,64.8,52.8,117.6,117.7,117.6	c64.8,0,117.5-52.6,117.7-117.2h-12V81.5h-7.1V70.9H770v-4.5h-10.1v3.2l-2,2.3v19.2h-10.3V76.8l-2.6-2.9h-5.7v-4.8h-6.5v31.3h-10.5	V88.8H713v11.6h-24.7v-3.5h21.2V85.3h16.2v11.6h3.5V65.6h13.5v4.8h3.8l4.5,5.1v12.1h3.3v-17l2-2.3v-5.4h17.2v4.6h8.3v10.6h7.1v20.7	h12v3.1C800.9,168.8,746.5,223.1,679.7,223.1" class="st1"/>
  <path id="XMLID_1424_" d="M633.8,174.4c-1,0-2,0.3-2.9,0.8c-2.5,1.8-3.4,5.2-1.8,7.9c0.6,1.3,1.9,2.1,3.8,2.6	c0.5,0,1.1,0.1,1.8,0.1c7.5,0,13.9-4.6,19.4-8.9l1-0.8l0.7,1.1c2.5,4.2,6.8,7.2,11.4,8.1c0.3,0,0.6,0,1,0c3.3,0,6.9-1.6,7.6-5	c0.4-2.5-1.1-5.2-3.5-6.4c-1.5-0.6-3.3-0.5-5.8,0.5c-0.6,0.2-0.8,1-1.1,2.1c-0.3,1.2-0.7,2.9-2.5,2.9c-1.3,0-3.4-1.1-4.2-2.6	c-0.4-0.8-0.4-1.7,0.1-2.4c3.8-5.7,8.7-9.7,13.5-13.6c2.2-1.8,4.5-3.6,6.6-5.6l0.8-0.7l0.8,0.7c2.1,1.9,4.3,3.7,6.5,5.5	c5.1,4,10.3,8.1,13.6,14.3c0.2,0.3,0.4,0.8,0.1,1.5c-0.5,1.2-2.5,2.9-4.1,3c-0.9,0.2-1.5-0.1-1.8-0.4c-0.6-0.6-0.5-1.3-0.5-2	c0-0.5,0-1-0.1-1.2c-0.7-1.5-2.2-1.8-3.8-2.2c-2.9-0.7-6,1.5-6.7,4.6c-0.3,1.4-0.1,2.8,0.7,4c1.6,2.1,3.8,3.2,6.3,3.2	c5,0,10.4-4.2,13-8.2l0.7-1.1l1,0.8c5,4,11.5,8.6,18.1,8.6c1.8,0,3.5-0.3,5.1-1c1.2-0.5,2.1-1.6,2.5-3c0.4-1.5,0.2-3.1-0.7-4.3	c-1.1-1.6-2.9-2.6-4.9-2.6s-3.9,1-4.9,2.5l-0.5,0.8l-0.9-0.3c-3.4-1.3-7.6-3.2-9.7-6.9c-0.8-1.2-0.4-3.1,0.2-4.4	c0.7-1.2,1.4-1.5,2-1.5c0.2,0,0.5,0.1,0.7,0.2c1.6,1,3.3,1.6,4.9,1.6c2.9,0,5-1.7,5.7-4.4c0.3-1.4,0-2.9-0.9-4.1	c-0.9-1.3-2.2-2.2-3.7-2.6c-0.2,0-0.6-0.1-0.9-0.1c-2.6,0-5.2,1.3-6.9,3.3c-1.1,1.3-1.6,2.9-2.1,4.6c-0.5,1.5-1,3-1.9,4.4l-0.8,1.1	l-21.1-19.7l0.9-0.9c22.7-21.8,53-29.5,77.9-31.8c-3.2-0.3-6.4-0.4-9.6-0.4c-27.5,0-53.5,9.5-73.1,26.6l-0.7,0.6l-0.8-0.6	c-10.3-7.6-24.1-16.9-39.9-21.6c-14.8-4.3-29.6-6-43.8-4.8c24.9,2.2,55.3,9.9,78,31.8l0.9,0.9l-20.9,19.4l-0.8-1.1	c-0.9-1.4-1.4-2.9-1.9-4.4c-0.5-1.7-1-3.3-2.1-4.6c-1.5-1.5-3.1-2.4-5.3-3.3c-3.4-0.7-6.4,1.2-7.1,4.6c-0.4,2.5,1.1,5.2,3.5,6.4	c0.3,0.1,0.8,0.2,1.4,0.2c1.6,0,3.1-0.6,4.6-1.3l0.7-0.3c0.3-0.1,0.5-0.1,0.7-0.1c0.9,0,1.8,0.6,2.4,1.7c0.6,1.2,0.9,3,0.1,4.2	c-2,3.6-6.2,5.5-9.6,6.8l-0.8,0.3l-0.5-0.7C637.6,175.4,635.7,174.4,633.8,174.4 M634.6,188.1c-0.7,0-1.4,0-2.2-0.1	c-2.7-0.7-4.5-1.9-5.5-3.8c-2.1-3.7-1-8.4,2.6-11c3.6-2.1,8-1.1,10.6,1.8c2.9-1.1,6.1-2.8,7.7-5.5c0.1-0.2,0.2-0.6,0-1.3	c-0.2-0.6-0.4-0.9-0.6-1.1l-0.5,0.2c-1.6,0.7-3.5,1.4-5.5,1.4c-0.8,0-1.5-0.1-2.3-0.4c-3.4-1.7-5.4-5.4-4.9-9c0.9-4,4.1-6.6,8-6.6	c0.7,0,1.3,0.1,2,0.2l0.2,0.1c2.5,1,4.4,2,6.3,3.9c1.5,1.7,2.1,3.6,2.6,5.5c0.3,0.9,0.6,1.7,0.9,2.5l17-15.8	c-25.9-24.3-61.8-30.2-87.5-31l-10.6-0.3l10.4-2c18.1-3.5,37.4-2.4,56.7,3.2c15.9,4.6,29.6,13.8,39.9,21.4	c19.9-17.2,46.1-26.6,73.9-26.6c7.4,0,14.7,0.7,21.9,2l10.7,2l-10.8,0.3c-25.7,0.7-61.6,6.7-87.5,31l17,15.8	c0.3-0.8,0.6-1.7,0.9-2.5c0.6-1.8,1.2-3.7,2.6-5.4c2.4-2.9,6.5-4.6,10.1-4c2.2,0.5,4,1.8,5.2,3.6c1.3,1.9,1.7,4,1.2,6	c-1,3.8-4,6.2-7.9,6.2c-1.8,0-3.7-0.5-5.5-1.5c-0.3,0.6-0.6,1.7-0.3,2.1c1.6,2.8,4.8,4.5,7.7,5.6c1.5-1.8,3.8-2.8,6.3-2.8	c2.8,0,5.4,1.3,6.9,3.6c1.3,1.8,1.7,4.1,1,6.3c-0.6,2.1-2,3.7-3.8,4.5c-1.9,0.8-3.9,1.2-6,1.2c-6.9,0-13.5-4.3-18.6-8.3	c-3.2,4.2-8.8,8.2-14.2,8.2c-3.2,0-6.1-1.5-8.2-4.2c-1.2-1.8-1.6-4-1.1-6c0.9-3.7,4.3-6.5,7.9-6.5c0.6,0,1.1,0.1,1.7,0.2	c1.9,0.5,4.1,1,5.3,3.3c0.5,0.7,0.5,1.7,0.5,2.5l0,0c0.5-0.1,1.4-0.9,1.8-1.3c-3-5.5-7.8-9.3-12.8-13.2c-2-1.5-4-3.1-5.9-4.8	c-1.9,1.8-4,3.4-5.9,5c-4.9,4-9.4,7.7-13,13.1c0.1,0.4,1.4,1.3,2.1,1.3c0.1-0.2,0.3-0.8,0.4-1.2c0.3-1.3,0.8-3,2.5-3.7	c3.1-1.2,5.4-1.3,7.7-0.4c3.3,1.7,5.3,5.4,4.8,8.9c-1.1,5.4-6.7,7.4-11.3,6.9c-4.9-0.9-9.5-3.9-12.4-8.1	C648.9,183.8,642.3,188.1,634.6,188.1" class="st1"/>
  <path id="XMLID_1427_" d="M723.8,31.8l2.9,2.2l-2.1-3C711,11.6,695.8,11,691,11.4c1-1,2.7-2.6,5.1-3.5l1.7-0.6l-1.7-0.5	c-3.6-1-8.7-1.8-13.1,1.8c-0.7-3.7-2.3-7.6-3.4-8.3c-0.3-0.2-0.6-0.2-0.7-0.2c-1.2,0.3-3.2,3.4-4.2,8.5c-3.1-2.5-8.4-3.6-12.8-1.4	l-1.3,0.6l1.4,0.5c0,0,2.9,1,4.6,3.5c-19.8,0.5-27,10.2-32.8,18c-0.4,0.6-0.8,1.1-1.3,1.7l0.9,0.8c8.1-7.5,20.6-10.1,26.6-8.5	c-7.2,2.9-21.1,11.4-25.8,35.2l-0.6,3.1l1.7-2.7c7.9-12.5,15.7-20.1,24.8-24.3c-5.9,9-14.1,24.6-10.9,38.6l0.6,2.6l0.6-2.6	c3-13.8,11.1-25.3,16.5-30.5c-4.3,15.3-2.6,30.1-0.4,36.1l1,2.6l0.2-2.8c0.8-12.7,4.3-26.3,6.9-32.9l1.8,12.6l-1.1,0.3l0.8,17.3	h-1.4l1.3,17.8l-1.6,0.4l0.1,0.5c0,0.1,1.1,11.2,1.5,17.4c-2.1,1.1-4.2,3.2-4.8,3.9v1.2h15.5v-1.1l0.1-0.1c-1.6-1.9-3.8-3.2-4.7-3.7	l1.7-18.6l-1.7,0.1l1.2-18.2l-1.2,0.2l0.8-17.3h-1.3c0.3-1.5,0.9-5.7,1.5-12.8c3.4,5.7,6.3,17.6,7.8,32.5l0.5,4.4l0.7-4.4	c2.9-18,0.1-31.8-1.1-36.6c4.6,4.5,13.8,20.3,16.9,31.6l0.9,3.4l0.3-3.5c1.1-15.1-2.3-26.5-11.9-38.9c3.9,1.1,8.7,4.4,13.7,9.4	c4.7,4.7,9.3,10.6,11.7,15.2l1.4,2.7l-0.3-3c-1.9-18.4-15.7-31.4-25.5-35.4C706.8,21.8,719.8,28.8,723.8,31.8" class="st1"/>
</svg>
